<svg width="26" height="22" viewBox="0 0 26 22" fill="none" xmlns="http://www.w3.org/2000/svg">
<path d="M23.3275 5.78849C23.344 6.01485 23.344 6.24126 23.344 6.46762C23.344 13.3719 17.9823 21.3272 8.18277 21.3272C5.16371 21.3272 2.35915 20.4702 0 18.9827C0.428951 19.0312 0.841347 19.0474 1.2868 19.0474C3.77789 19.0474 6.07107 18.2228 7.9023 16.816C5.55965 16.7675 3.59644 15.2638 2.92003 13.1941C3.25001 13.2425 3.57994 13.2749 3.92642 13.2749C4.40483 13.2749 4.8833 13.2102 5.3287 13.0971C2.88708 12.6119 1.0558 10.51 1.0558 7.97136V7.90671C1.76516 8.29478 2.59011 8.53731 3.46441 8.56962C2.02913 7.63177 1.08881 6.03103 1.08881 4.22005C1.08881 3.24991 1.35272 2.36059 1.81468 1.58446C4.43779 4.75365 8.38072 6.82329 12.802 7.0497C12.7195 6.66163 12.67 6.25744 12.67 5.8532C12.67 2.97502 15.0457 0.630493 17.9987 0.630493C19.533 0.630493 20.9188 1.2611 21.8921 2.27977C23.0964 2.05341 24.2512 1.61681 25.2741 1.01856C24.8781 2.23129 24.0368 3.24996 22.9315 3.89669C24.0038 3.78356 25.0432 3.49244 26 3.08825C25.2742 4.12305 24.3668 5.04466 23.3275 5.78849Z" fill="#123D6D"/>
</svg>
